{"title":"Cast Away *2000*[BluRay][1080p][ENG, POL]","uid":5999852,"size":14504128877,"categoryP":"video","categoryS":"hd___movies","magnet":"?xt=urn:btih:44e687e69df44e54a4071a9b0d98065951df87f0&amp;dn=Cast+Away+%2A2000%2A%5BBluRay%5D%5B1080p%5D%5BENG%2C+POL%5D&amp;tr=udp%3A%2F%2Ftracker.openbittorrent.com%3A80&amp;tr=udp%3A%2F%2Fopen.demonii.com%3A1337&amp;tr=udp%3A%2F%2Ftracker.coppersurfer.tk%3A6969&amp;tr=udp%3A%2F%2Fexodus.desync.com%3A6969","seeders":1,"leechers":0,"uploader":"albedo040","files":1,"time":1291152938,"description":"Cast Away *2000*[BluRay][1080p][ENG, POL]\n\nGeneral information:\nCountry: USA\nRelease: 7 December 2000\nGenre: Adventure, Drama \nDirector: Robert Zemeckis\nScreenplay: William Broyles\nOriginal Music: Alan Silvestri \nCinematography by: Don Burgess \nDuration: 2h 23mn\nLanguage: English,Polish\nSubtitles: English,Polish\nRating: 7.8/10 - 71303 votes \n\nCast:\nTom Hanks  ...  Chuck Noland \nPaul Sanchez  ...  Ramon  \nLari White  ...  Bettina Peterson  \nLeonid Citer  ...  Fyodor  \nDavid Allen Brooks  ...  Dick Peterson  \nJelena Papovic  ...  Beautiful Russian Woman (as Yelena Papovic)  \nValentina Ananyina  ...  Russian Babushka  \nSemion Sudarikov  ...  Nicolai  \nPeter von Berg  ...  Yuri (as Peter Von Berg)  \nDmitri S. Boudrine  ...  Lev  \nFranÃƒÂ§ois Duhamel  ...  French FedEx Loader  \nMichael Forest  ...  Pilot Jack  \nViveka Davis  ...  Pilot Gwen  \nNick Searcy  ...  Stan  \nJae Choe  ...  Memphis State Student (as Jennifer Choe)  \n\nPlot:\nA FedEx executive must transform himself physically and emotionally to survive a crash landing on a deserted island. \n\nSpecifications:\nGeneral\nFormat                           : Matroska\nOverall bit rate                 : 13.5 Mbps\n\nVideo\nFormat                           : AVC\nFormat/Info                      : Advanced Video Codec\nFormat profile                   : &lt;a class=&quot;__cf_email__&quot; href=&quot;/cdn-cgi/l/email-protection&quot; data-cfemail=&quot;80c8e9e7e8c0ccb4aeb1&quot;&gt;[email&amp;#160;protected]&lt;/a&gt;&lt;script cf-hash='f9e31' type=&quot;text/javascript&quot;&gt;\n/* &lt;![CDATA[ */!function(){try{var t=&quot;currentScript&quot;in document?document.currentScript:function(){for(var t=document.getElementsByTagName(&quot;script&quot;),e=t.length;e--;)if(t[e].getAttribute(&quot;cf-hash&quot;))return t[e]}();if(t&amp;&amp;t.previousSibling){var e,r,n,i,c=t.previousSibling,a=c.getAttribute(&quot;data-cfemail&quot;);if(a){for(e=&quot;&quot;,r=parseInt(a.substr(0,2),16),n=2;a.length-n;n+=2)i=parseInt(a.substr(n,2),16)^r,e+=String.fromCharCode(i);e=document.createTextNode(e),c.parentNode.replaceChild(e,c)}}}catch(u){}}();/* ]]&gt; */&lt;/script&gt;\nFormat settings, CABAC           : Yes\nFormat settings, ReFrames        : 4 frames\nMuxing mode                      : Container profile=&lt;a class=&quot;__cf_email__&quot; href=&quot;/cdn-cgi/l/email-protection&quot; data-cfemail=&quot;adf8c3c6c3c2dac3ed99839c&quot;&gt;[email&amp;#160;protected]&lt;/a&gt;&lt;script cf-hash='f9e31' type=&quot;text/javascript&quot;&gt;\n/* &lt;![CDATA[ */!function(){try{var t=&quot;currentScript&quot;in document?document.currentScript:function(){for(var t=document.getElementsByTagName(&quot;script&quot;),e=t.length;e--;)if(t[e].getAttribute(&quot;cf-hash&quot;))return t[e]}();if(t&amp;&amp;t.previousSibling){var e,r,n,i,c=t.previousSibling,a=c.getAttribute(&quot;data-cfemail&quot;);if(a){for(e=&quot;&quot;,r=parseInt(a.substr(0,2),16),n=2;a.length-n;n+=2)i=parseInt(a.substr(n,2),16)^r,e+=String.fromCharCode(i);e=document.createTextNode(e),c.parentNode.replaceChild(e,c)}}}catch(u){}}();/* ]]&gt; */&lt;/script&gt;\nCodec ID                         : V_MPEG4/ISO/AVC\nBit rate                         : 11.6 Mbps\nWidth                            : 1 920 pixels\nHeight                           : 1 040 pixels\nDisplay aspect ratio             : 16:9\nFrame rate                       : 23.976 fps\n\nAudio 1\nFormat                           : DTS\nFormat/Info                      : Digital Theater Systems\nCodec ID                         : A_DTS\nBit rate mode                    : Constant\nBit rate                         : 1 510 Kbps\nChannel(s)                       : 6 channels\nChannel positions                : Front: L C R, Side: L R, LFE\nSampling rate                    : 48.0 KHz\nBit depth                        : 24 bits\nStream size                      : 1.52 GiB (11%)\nTitle                            : English\n\nAudio 2\nFormat                           : AC-3\nFormat/Info                      : Audio Coding 3\nMode extension                   : CM (complete main)\nCodec ID                         : A_AC3\nBit rate mode                    : Constant\nBit rate                         : 384 Kbps\nChannel(s)                       : 2 channels\nChannel positions                : Front: L R\nSampling rate                    : 48.0 KHz\nStream size                      : 395 MiB (3%)\nTitle                            : Polish\nLanguage                         : Polish\n\nText 1\nFormat                           : UTF-8\nCodec ID                         : S_TEXT/UTF8\nCodec ID/Info                    : UTF-8 Plain Text\nTitle                            : English\n\nText 2\nFormat                           : UTF-8\nCodec ID                         : S_TEXT/UTF8\nCodec ID/Info                    : UTF-8 Plain Text\nTitle                            : Polish\nLanguage                         : Polish\n\nFor playback on Windows PCs, I recommend - Splash Pro","torrent":{"xt":"urn:btih:44e687e69df44e54a4071a9b0d98065951df87f0","amp;dn":"Cast+Away+%2A2000%2A%5BBluRay%5D%5B1080p%5D%5BENG%2C+POL%5D","amp;tr":["udp%3A%2F%2Ftracker.openbittorrent.com%3A80","udp%3A%2F%2Fopen.demonii.com%3A1337","udp%3A%2F%2Ftracker.coppersurfer.tk%3A6969","udp%3A%2F%2Fexodus.desync.com%3A6969"],"infoHash":"44e687e69df44e54a4071a9b0d98065951df87f0","infoHashBuffer":{"type":"Buffer","data":[68,230,135,230,157,244,78,84,164,7,26,155,13,152,6,89,81,223,135,240]},"announce":[],"urlList":[]}}